<svg version="1.1" id="Layer_1" xmlns="http://www.w3.org/2000/svg" xmlns:xlink="http://www.w3.org/1999/xlink" x="0px" y="0px"
	 width="100%" viewBox="0 0 1667 1667" enable-background="new 0 0 1667 1667" xml:space="preserve">
<path fill="#FFFFFF" opacity="1.000000" stroke="none" 
	d="
M1152.000000,1668.000000 
	C768.000122,1668.000000 384.500214,1668.000000 1.000257,1668.000000 
	C1.000171,1112.333618 1.000171,556.667236 1.000086,1.000630 
	C556.666199,1.000420 1112.332397,1.000420 1667.999023,1.000210 
	C1667.999268,556.666077 1667.999268,1112.332153 1667.999634,1667.999023 
	C1496.166626,1668.000000 1324.333374,1668.000000 1152.000000,1668.000000 
M866.999329,1073.500000 
	C866.999329,1185.569702 866.999329,1297.639282 866.999329,1409.655273 
	C1004.099182,1409.655273 1140.340820,1409.655273 1277.002319,1409.655273 
	C1277.002319,1407.500732 1277.020386,1405.698853 1276.999512,1403.897461 
	C1276.670776,1375.614136 1276.159180,1347.331421 1276.036621,1319.047241 
	C1275.618408,1222.437866 1275.266235,1125.828003 1275.028931,1029.218018 
	C1274.885986,971.054993 1274.959717,912.891113 1275.090454,854.727966 
	C1275.099976,850.468872 1273.949585,848.311462 1269.773560,846.732788 
	C1250.790161,839.556763 1231.955688,831.987305 1213.069946,824.553101 
	C1192.342041,816.393677 1171.650757,808.140503 1150.881226,800.088928 
	C1130.428101,792.159912 1109.861694,784.523499 1089.413452,776.582336 
	C1076.818237,771.690918 1064.375732,766.407715 1051.822021,761.407471 
	C1019.611755,748.578003 987.356445,735.861450 955.160645,722.995911 
	C933.845581,714.478271 912.615173,705.748840 891.319702,697.181641 
	C883.438843,694.011230 875.480286,691.033997 866.999329,687.752747 
	C866.999329,816.548035 866.999329,944.524048 866.999329,1073.500000 
M802.001343,276.501282 
	C802.001343,270.750244 802.001343,264.999176 802.001343,259.354065 
	C664.903137,259.354065 528.672424,259.354065 392.398376,259.354065 
	C392.398376,500.020782 392.398376,740.332520 392.398376,981.230774 
	C401.190521,977.663208 409.411102,974.270203 417.674347,970.984436 
	C454.001862,956.539429 490.333801,942.105408 526.680237,927.708008 
	C545.861450,920.110107 565.077209,912.599487 584.274841,905.042908 
	C619.734497,891.085144 655.196350,877.133057 690.649658,863.159119 
	C725.508240,849.419434 760.352112,835.642273 795.219055,821.923828 
	C798.636902,820.579102 800.122986,818.757324 800.131958,814.625305 
	C800.281616,745.850525 800.724243,677.076599 800.986816,608.301941 
	C801.372742,507.200409 801.669983,406.098511 801.997375,304.996765 
	C802.027039,295.831482 802.001343,286.666046 802.001343,276.501282 
M868.471130,620.817444 
	C881.973267,626.182373 895.452332,631.606384 908.981873,636.901306 
	C952.924255,654.098877 996.894531,671.225220 1040.835938,688.425354 
	C1074.498291,701.601990 1108.138672,714.834900 1141.778809,728.068359 
	C1178.630127,742.565125 1215.464111,757.106445 1252.319702,771.592590 
	C1260.364746,774.754700 1268.469116,777.765320 1276.592163,780.863220 
	C1276.592163,606.678650 1276.592163,432.979034 1276.592163,259.333038 
	C1139.941895,259.333038 1003.712158,259.333038 866.998047,259.333038 
	C866.998047,261.298218 866.998047,262.926483 866.998047,264.554718 
	C866.998108,381.367462 866.994446,498.180176 867.033569,614.992920 
	C867.034119,616.748657 867.565430,618.504211 868.471130,620.817444 
M394.966705,1047.513550 
	C391.434265,1048.528564 391.995667,1051.399536 391.995728,1054.032471 
	C391.998718,1170.864258 391.998291,1287.695923 391.998291,1404.527710 
	C391.998291,1406.273193 391.998291,1408.018799 391.998291,1409.635742 
	C529.076416,1409.635742 665.324463,1409.635742 801.137573,1409.635742 
	C801.137573,1235.632812 801.137573,1061.995972 801.137573,887.743408 
	C781.628418,895.409058 763.072266,902.686707 744.526306,909.990417 
	C710.588989,923.355164 676.636047,936.680725 642.731689,950.128845 
	C620.478577,958.955566 598.345581,968.085754 576.076599,976.871704 
	C539.218384,991.413513 502.308380,1005.824646 465.391876,1020.218201 
	C442.184631,1029.266602 418.925842,1038.182861 394.966705,1047.513550 
z"/>
<path fill="#90D48B" opacity="1.000000" stroke="none" 
	d="
M866.999329,1073.000000 
	C866.999329,944.524048 866.999329,816.548035 866.999329,687.752747 
	C875.480286,691.033997 883.438843,694.011230 891.319702,697.181641 
	C912.615173,705.748840 933.845581,714.478271 955.160645,722.995911 
	C987.356445,735.861450 1019.611755,748.578003 1051.822021,761.407471 
	C1064.375732,766.407715 1076.818237,771.690918 1089.413452,776.582336 
	C1109.861694,784.523499 1130.428101,792.159912 1150.881226,800.088928 
	C1171.650757,808.140503 1192.342041,816.393677 1213.069946,824.553101 
	C1231.955688,831.987305 1250.790161,839.556763 1269.773560,846.732788 
	C1273.949585,848.311462 1275.099976,850.468872 1275.090454,854.727966 
	C1274.959717,912.891113 1274.885986,971.054993 1275.028931,1029.218018 
	C1275.266235,1125.828003 1275.618408,1222.437866 1276.036621,1319.047241 
	C1276.159180,1347.331421 1276.670776,1375.614136 1276.999512,1403.897461 
	C1277.020386,1405.698853 1277.002319,1407.500732 1277.002319,1409.655273 
	C1140.340820,1409.655273 1004.099182,1409.655273 866.999329,1409.655273 
	C866.999329,1297.639282 866.999329,1185.569702 866.999329,1073.000000 
z"/>
<path fill="#90D48B" opacity="1.000000" stroke="none" 
	d="
M802.001343,277.000977 
	C802.001343,286.666046 802.027039,295.831482 801.997375,304.996765 
	C801.669983,406.098511 801.372742,507.200409 800.986816,608.301941 
	C800.724243,677.076599 800.281616,745.850525 800.131958,814.625305 
	C800.122986,818.757324 798.636902,820.579102 795.219055,821.923828 
	C760.352112,835.642273 725.508240,849.419434 690.649658,863.159119 
	C655.196350,877.133057 619.734497,891.085144 584.274841,905.042908 
	C565.077209,912.599487 545.861450,920.110107 526.680237,927.708008 
	C490.333801,942.105408 454.001862,956.539429 417.674347,970.984436 
	C409.411102,974.270203 401.190521,977.663208 392.398376,981.230774 
	C392.398376,740.332520 392.398376,500.020782 392.398376,259.354065 
	C528.672424,259.354065 664.903137,259.354065 802.001343,259.354065 
	C802.001343,264.999176 802.001343,270.750244 802.001343,277.000977 
z"/>
<path fill="#90D48B" opacity="1.000000" stroke="none" 
	d="
M868.160034,620.538696 
	C867.565430,618.504211 867.034119,616.748657 867.033569,614.992920 
	C866.994446,498.180176 866.998108,381.367462 866.998047,264.554718 
	C866.998047,262.926483 866.998047,261.298218 866.998047,259.333038 
	C1003.712158,259.333038 1139.941895,259.333038 1276.592163,259.333038 
	C1276.592163,432.979034 1276.592163,606.678650 1276.592163,780.863220 
	C1268.469116,777.765320 1260.364746,774.754700 1252.319702,771.592590 
	C1215.464111,757.106445 1178.630127,742.565125 1141.778809,728.068359 
	C1108.138672,714.834900 1074.498291,701.601990 1040.835938,688.425354 
	C996.894531,671.225220 952.924255,654.098877 908.981873,636.901306 
	C895.452332,631.606384 881.973267,626.182373 868.160034,620.538696 
z"/>
<path fill="#90D48B" opacity="1.000000" stroke="none" 
	d="
M395.328430,1047.335938 
	C418.925842,1038.182861 442.184631,1029.266602 465.391876,1020.218201 
	C502.308380,1005.824646 539.218384,991.413513 576.076599,976.871704 
	C598.345581,968.085754 620.478577,958.955566 642.731689,950.128845 
	C676.636047,936.680725 710.588989,923.355164 744.526306,909.990417 
	C763.072266,902.686707 781.628418,895.409058 801.137573,887.743408 
	C801.137573,1061.995972 801.137573,1235.632812 801.137573,1409.635742 
	C665.324463,1409.635742 529.076416,1409.635742 391.998291,1409.635742 
	C391.998291,1408.018799 391.998291,1406.273193 391.998291,1404.527710 
	C391.998291,1287.695923 391.998718,1170.864258 391.995728,1054.032471 
	C391.995667,1051.399536 391.434265,1048.528564 395.328430,1047.335938 
z"/>
</svg>