<?xml version="1.0" standalone="no"?>
<!DOCTYPE svg PUBLIC "-//W3C//DTD SVG 20010904//EN"
 "http://www.w3.org/TR/2001/REC-SVG-20010904/DTD/svg10.dtd">
<svg version="1.0" xmlns="http://www.w3.org/2000/svg"
 width="400.000000pt" height="400.000000pt" viewBox="0 0 400.000000 400.000000"
 preserveAspectRatio="xMidYMid meet">

<g transform="translate(0.000000,400.000000) scale(0.100000,-0.100000)"
fill="#000000" stroke="none">
<path d="M940 2515 l0 -865 33 13 c17 8 167 67 332 132 165 65 370 146 455
180 l155 61 3 672 2 672 -490 0 -490 0 0 -865z"/>
<path d="M2080 2948 l0 -433 213 -84 c178 -70 669 -262 745 -292 l22 -9 0 625
0 625 -490 0 -490 0 0 -432z"/>
<path d="M2080 1485 l0 -865 490 0 490 0 -2 672 -3 673 -200 78 c-256 100
-689 271 -737 292 l-38 15 0 -865z"/>
<path d="M1505 1707 c-225 -90 -445 -176 -487 -192 l-78 -30 0 -432 0 -433
490 0 490 0 0 625 c0 344 -1 625 -2 625 -2 -1 -187 -74 -413 -163z"/>
</g>
</svg>
