<svg id="svg" version="1.1" xmlns="http://www.w3.org/2000/svg" xmlns:xlink="http://www.w3.org/1999/xlink" width="400" height="400" viewBox="0, 0, 400,400"><g id="svgg"><path id="path0" d="M93.821 148.530 C 93.821 196.173,93.878 235.153,93.946 235.153 C 94.015 235.153,96.850 234.028,100.245 232.652 C 103.641 231.277,115.867 226.428,127.415 221.877 C 138.962 217.326,153.377 211.636,159.448 209.233 C 165.519 206.831,175.221 202.994,181.009 200.708 C 186.797 198.421,191.564 196.517,191.603 196.476 C 191.642 196.434,191.739 172.484,191.819 143.251 C 191.898 114.019,192.028 83.758,192.107 76.005 L 192.251 61.908 143.036 61.908 L 93.821 61.908 93.821 148.530 M207.858 105.274 L 207.918 148.640 222.915 154.546 C 231.164 157.794,253.137 166.419,271.746 173.711 C 290.354 181.003,305.714 187.024,305.879 187.092 C 306.118 187.189,306.179 174.589,306.179 124.561 L 306.179 61.908 256.988 61.908 L 207.797 61.908 207.858 105.274 M207.798 251.444 L 207.798 338.092 256.975 338.092 L 306.152 338.092 306.018 301.440 C 305.945 281.281,305.816 250.969,305.732 234.080 L 305.579 203.372 300.900 201.541 C 298.326 200.535,291.308 197.793,285.303 195.449 C 265.259 187.624,242.879 178.794,225.557 171.877 C 216.121 168.110,208.266 164.975,208.100 164.911 C 207.858 164.819,207.798 181.957,207.798 251.444 M171.446 220.855 C 160.360 225.242,144.541 231.508,136.293 234.780 C 123.328 239.923,105.932 246.744,96.701 250.304 L 93.941 251.369 93.881 294.731 L 93.820 338.092 143.011 338.092 L 192.202 338.092 192.201 295.801 C 192.201 251.866,191.985 212.822,191.742 212.858 C 191.665 212.870,182.531 216.468,171.446 220.855 " stroke="none" fill="#94d48c" fill-rule="evenodd"></path><path id="path1" d="" stroke="none" fill="#98d48c" fill-rule="evenodd"></path><path id="path2" d="" stroke="none" fill="#98d48c" fill-rule="evenodd"></path><path id="path3" d="" stroke="none" fill="#98d48c" fill-rule="evenodd"></path><path id="path4" d="" stroke="none" fill="#98d48c" fill-rule="evenodd"></path></g></svg>